<?xml version="1.0" standalone="no"?>
<!DOCTYPE svg PUBLIC "-//W3C//DTD SVG 20010904//EN"
 "http://www.w3.org/TR/2001/REC-SVG-20010904/DTD/svg10.dtd">
<svg version="1.0" xmlns="http://www.w3.org/2000/svg"
 width="1080.000000pt" height="1053.000000pt" viewBox="0 0 1080.000000 1053.000000"
 preserveAspectRatio="xMidYMid meet">

<g transform="translate(0.000000,1053.000000) scale(0.100000,-0.100000)"
fill="#000000" stroke="none">
<path d="M3437 10380 c-18 -42 -65 -267 -74 -351 l-6 -59 -101 1 c-354 1
-2241 -13 -2245 -17 -3 -3 -7 -29 -9 -57 -2 -29 -5 -1172 -7 -2541 l-3 -2488
-77 -44 c-228 -130 -434 -289 -523 -404 -33 -43 -137 -202 -179 -275 -93 -159
-106 -184 -149 -272 -25 -51 -48 -95 -53 -97 -4 -3 -8 -26 -10 -53 l-2 -48 24
45 c89 171 205 371 263 453 19 26 34 49 34 52 0 3 24 38 54 78 88 118 193 211
396 348 132 90 227 144 520 297 189 99 368 204 540 317 85 56 202 130 260 165
248 149 335 208 385 261 55 59 67 63 27 9 -40 -55 -150 -139 -267 -204 -102
-57 -270 -162 -456 -287 -95 -63 -170 -110 -339 -209 -8 -5 -37 -21 -65 -36
-27 -14 -57 -32 -65 -38 -8 -7 -34 -21 -57 -31 -24 -10 -43 -22 -43 -27 0 -5
-4 -7 -8 -4 -5 3 -19 -2 -32 -11 -21 -15 -95 -55 -207 -113 -24 -12 -40 -26
-37 -31 3 -5 -1 -9 -9 -9 -20 0 -107 -50 -107 -61 0 -5 -3 -8 -8 -6 -4 1 -8
-2 -9 -7 -2 -9 -31 -27 -71 -45 -34 -16 -92 -64 -92 -77 0 -20 -25 -35 -37
-23 -8 8 -13 7 -18 -1 -4 -7 -1 -17 6 -22 10 -6 7 -7 -10 -3 -16 5 -21 4 -17
-4 4 -6 4 -10 -1 -9 -16 5 -75 -51 -67 -63 4 -7 3 -9 -4 -5 -6 3 -20 -4 -31
-16 -22 -23 -26 -34 -13 -41 4 -2 2 -2 -5 -1 -14 4 -27 -12 -16 -19 5 -2 3 -2
-4 -1 -6 2 -18 -8 -27 -21 -33 -51 -56 -96 -56 -113 0 -12 -3 -13 -8 -5 -6 9
-11 7 -20 -7 -9 -15 -9 -20 -1 -20 7 0 0 -9 -15 -21 -14 -11 -26 -29 -26 -39
0 -10 -7 -20 -15 -24 -8 -3 -15 -12 -15 -21 0 -8 -4 -15 -8 -15 -4 0 -18 -19
-30 -43 -33 -61 -93 -166 -119 -207 -13 -19 -23 -39 -23 -43 0 -5 -7 -15 -15
-23 -12 -13 -15 -113 -15 -727 0 -392 -5 -890 -10 -1107 -5 -217 -9 -725 -10
-1128 l0 -732 2275 0 c1251 0 2275 4 2275 9 0 4 -9 16 -20 26 -20 18 -27 45
-12 45 5 0 55 29 112 65 l102 65 -7 -47 c-4 -27 -16 -70 -26 -98 -10 -27 -19
-53 -19 -57 0 -5 1247 -8 2770 -8 1524 0 2770 3 2770 6 0 15 -229 437 -274
507 -10 15 -14 27 -10 27 5 0 117 2 249 3 l240 2 1 25 c0 14 4 31 8 39 5 7 7
2105 5 4662 -3 3707 -7 4650 -16 4654 -7 2 -13 13 -13 23 0 25 -16 38 -57 47
-32 6 -47 -8 -20 -18 6 -3 -216 -6 -495 -6 l-506 -1 -95 25 c-176 47 -253 57
-482 62 l-220 5 -325 -47 c-319 -47 -330 -48 -575 -48 -229 0 -258 2 -340 23
-159 40 -313 131 -403 237 -22 25 -43 60 -46 76 -8 38 -33 67 -58 67 -31 0
-103 -76 -139 -147 -31 -63 -34 -75 -34 -160 l0 -93 -1376 -2 c-756 -2 -1383
-2 -1391 0 -9 2 -42 38 -74 80 -31 42 -112 132 -178 199 -66 68 -126 133 -132
145 -13 23 -13 23 -27 -12z m3334 -108 c-5 -10 -17 -24 -25 -31 -8 -7 -20 -28
-26 -47 -7 -20 -14 -33 -17 -31 -7 8 27 80 49 104 26 28 32 29 19 5z m-2906
-443 c-8 -12 -35 -12 -35 0 0 11 22 20 33 14 4 -2 5 -9 2 -14z m65 -91 c0 -19
-18 -43 -25 -36 -9 9 4 48 16 48 5 0 9 -6 9 -12z m70 -218 c0 -5 -4 -10 -10
-10 -5 0 -10 5 -10 10 0 6 5 10 10 10 6 0 10 -4 10 -10z m5890 0 c0 -5 -4 -10
-10 -10 -5 0 -10 5 -10 10 0 6 5 10 10 10 6 0 10 -4 10 -10z m58 -98 c2 -7 -5
-12 -17 -12 -14 0 -19 5 -14 15 6 17 25 15 31 -3z m-5893 -52 c3 -5 1 -10 -4
-10 -6 0 -11 5 -11 10 0 6 2 10 4 10 3 0 8 -4 11 -10z m143 -71 c-2 -6 -8 -10
-13 -10 -5 0 -11 4 -13 10 -2 6 4 11 13 11 9 0 15 -5 13 -11z m156 -5 c3 -8 2
-12 -4 -9 -6 3 -10 10 -10 16 0 14 7 11 14 -7z m4536 -74 c0 -5 -5 -10 -11
-10 -5 0 -7 5 -4 10 3 6 8 10 11 10 2 0 4 -4 4 -10z m-61 -50 c-48 -41 -60
-37 -13 4 21 19 41 33 43 30 3 -2 -11 -18 -30 -34z m-4629 -35 c0 -8 -4 -15
-9 -15 -13 0 -22 16 -14 24 11 11 23 6 23 -9z m4570 -9 c0 -3 -4 -8 -10 -11
-5 -3 -10 -1 -10 4 0 6 5 11 10 11 6 0 10 -2 10 -4z m-30 -30 c0 -2 -8 -10
-17 -17 -16 -13 -17 -12 -4 4 13 16 21 21 21 13z m-4260 -61 c0 -5 -5 -3 -10
5 -5 8 -10 20 -10 25 0 6 5 3 10 -5 5 -8 10 -19 10 -25z m4220 20 c0 -2 -10
-10 -22 -16 -21 -11 -22 -11 -9 4 13 16 31 23 31 12z m797 -54 c-7 -61 -40
-114 -114 -186 -52 -50 -144 -113 -176 -119 -7 -2 -23 -8 -37 -13 -14 -6 -28
-9 -32 -6 -12 7 -9 23 3 23 7 0 45 16 86 36 128 61 263 211 263 291 0 13 3 23
6 23 4 0 4 -22 1 -49z m593 -2 c0 -5 -7 -9 -15 -9 -15 0 -20 12 -9 23 8 8 24
-1 24 -14z m-5820 -34 c0 -8 -7 -15 -15 -15 -8 0 -15 7 -15 15 0 8 7 15 15 15
8 0 15 -7 15 -15z m254 0 c3 -8 1 -15 -4 -15 -6 0 -10 7 -10 15 0 8 2 15 4 15
2 0 6 -7 10 -15z m4146 -105 c-9 -6 -19 -5 -25 1 -6 6 -5 13 5 19 9 6 19 5 25
-1 6 -6 5 -13 -5 -19z m-4354 -38 c-4 -3 -12 0 -19 7 -9 9 -9 14 3 21 11 7 16
5 18 -6 2 -9 1 -18 -2 -22z m278 -18 c3 -8 2 -12 -4 -9 -6 3 -10 10 -10 16 0
14 7 11 14 -7z m36 -68 c0 -5 -7 -1 -15 10 -8 10 -14 24 -14 29 0 6 6 1 14 -9
8 -11 15 -24 15 -30z m3880 19 c0 -8 -7 -15 -15 -15 -8 0 -15 7 -15 15 0 8 7
15 15 15 8 0 15 -7 15 -15z m-3830 -96 c0 -6 -4 -7 -10 -4 -5 3 -10 11 -10 16
0 6 5 7 10 4 6 -3 10 -11 10 -16z m905 -59 c3 -5 -2 -10 -12 -10 -60 0 -208
-57 -308 -119 -58 -35 -383 -201 -395 -201 -5 0 -10 3 -10 8 1 8 65 42 82 42
6 0 27 10 47 22 19 12 42 23 49 24 8 2 22 10 31 18 10 9 24 16 31 16 7 0 28
11 46 25 18 14 39 25 48 25 8 0 21 6 28 13 30 30 198 110 258 122 19 4 42 11
50 16 20 12 48 11 55 -1z m-849 -37 c-7 -7 -26 7 -26 19 0 6 6 6 15 -2 9 -7
13 -15 11 -17z m-176 -3 c0 -5 -4 -10 -9 -10 -6 0 -13 5 -16 10 -3 6 1 10 9
10 9 0 16 -4 16 -10z m210 -51 c0 -6 -4 -7 -10 -4 -5 3 -10 11 -10 16 0 6 5 7
10 4 6 -3 10 -11 10 -16z m3540 -3 c0 -3 -4 -8 -10 -11 -5 -3 -10 -1 -10 4 0
6 5 11 10 11 6 0 10 -2 10 -4z m-3522 -41 c-3 -3 -9 2 -12 12 -6 14 -5 15 5 6
7 -7 10 -15 7 -18z m3297 -35 c-3 -5 -12 -10 -18 -10 -7 0 -6 4 3 10 19 12 23
12 15 0z m-3258 -42 c-3 -8 -6 -5 -6 6 -1 11 2 17 5 13 3 -3 4 -12 1 -19z
m3188 12 c-3 -5 -11 -10 -16 -10 -6 0 -7 5 -4 10 3 6 11 10 16 10 6 0 7 -4 4
-10z m198 -24 c8 -19 -15 -37 -32 -26 -17 10 -7 40 13 40 7 0 16 -6 19 -14z
m-248 -6 c-3 -5 -12 -10 -18 -10 -7 0 -6 4 3 10 19 12 23 12 15 0z m-3327 -51
c3 -28 -16 -43 -42 -33 -38 14 -22 68 18 62 14 -2 22 -12 24 -29z m3257 21
c-3 -5 -11 -10 -16 -10 -6 0 -29 -9 -52 -21 -59 -28 -148 -59 -142 -49 3 5 25
15 48 22 23 7 65 25 92 39 53 28 80 36 70 19z m-3038 -22 c-3 -8 -6 -5 -6 6
-1 11 2 17 5 13 3 -3 4 -12 1 -19z m3453 -26 c0 -5 -9 -17 -19 -26 -22 -20
-40 -4 -21 19 13 16 40 20 40 7z m-650 -46 c0 -2 -13 -9 -30 -15 -16 -5 -30
-6 -30 -1 0 5 8 11 18 13 24 7 42 8 42 3z m-80 -30 c0 -2 -13 -9 -30 -15 -16
-5 -30 -6 -30 -1 0 5 8 11 18 13 24 7 42 8 42 3z m-83 -32 c-3 -3 -12 -4 -19
-1 -8 3 -5 6 6 6 11 1 17 -2 13 -5z m-47 -13 c-22 -13 -125 -47 -215 -70 -44
-12 -89 -24 -100 -27 -19 -5 -19 -4 -2 7 11 6 67 24 125 39 59 15 125 35 147
43 44 17 68 21 45 8z m506 -68 c-10 -10 -19 5 -10 18 6 11 8 11 12 0 2 -7 1
-15 -2 -18z m54 -33 c0 -5 -4 -10 -10 -10 -5 0 -10 5 -10 10 0 6 5 10 10 10 6
0 10 -4 10 -10z m-955 -17 c-11 -3 -60 -18 -108 -35 -49 -16 -91 -28 -93 -25
-7 6 178 67 201 66 l20 -1 -20 -5z m-225 -71 c0 -9 -110 -45 -117 -39 -3 4 12
11 82 35 17 5 31 10 33 11 1 1 2 -3 2 -7z m3250 -32 c0 -5 -4 -10 -10 -10 -5
0 -10 5 -10 10 0 6 5 10 10 10 6 0 10 -4 10 -10z m-3395 -20 c-11 -5 -27 -9
-35 -9 -13 -1 -13 0 0 9 8 5 24 9 35 9 l20 0 -20 -9z m-58 -16 c-3 -3 -12 -4
-19 -1 -8 3 -5 6 6 6 11 1 17 -2 13 -5z m-52 -12 c-10 -8 -84 -32 -100 -32
-19 0 10 16 48 26 56 15 63 16 52 6z m-1700 -32 c-3 -5 -12 -10 -18 -10 -7 0
-6 4 3 10 19 12 23 12 15 0z m2825 0 c0 -5 -4 -10 -10 -10 -5 0 -10 5 -10 10
0 6 5 10 10 10 6 0 10 -4 10 -10z m-1250 -10 c-8 -5 -24 -9 -35 -9 l-20 0 20
9 c11 5 27 9 35 9 13 1 13 0 0 -9z m-1735 -50 c-3 -5 -12 -10 -18 -10 -7 0 -6
4 3 10 19 12 23 12 15 0z m-135 -54 c0 -2 -7 -7 -16 -10 -8 -3 -12 -2 -9 4 6
10 25 14 25 6z m-181 -90 c-2 -2 -15 -7 -29 -10 l-25 -7 25 15 c21 12 42 14
29 2z m3511 6 c0 -13 -12 -22 -22 -16 -10 6 -1 24 13 24 5 0 9 -4 9 -8z
m-4590 -59 c-11 -17 -11 -17 -6 0 3 10 6 24 7 30 0 9 2 9 5 0 3 -7 0 -20 -6
-30z m1000 19 c0 -4 -13 -13 -30 -19 -38 -14 -39 -8 -2 11 32 18 32 18 32 8z
m5800 -12 c0 -5 -4 -10 -10 -10 -5 0 -10 5 -10 10 0 6 5 10 10 10 6 0 10 -4
10 -10z m-2820 -50 c0 -5 -4 -10 -10 -10 -5 0 -10 5 -10 10 0 6 5 10 10 10 6
0 10 -4 10 -10z m2740 -10 c0 -5 -4 -10 -10 -10 -5 0 -10 5 -10 10 0 6 5 10
10 10 6 0 10 -4 10 -10z m-2465 -60 c3 -5 1 -10 -4 -10 -6 0 -11 5 -11 10 0 6
2 10 4 10 3 0 8 -4 11 -10z m245 -9 c0 -6 -4 -13 -10 -16 -5 -3 -10 1 -10 9 0
9 5 16 10 16 6 0 10 -4 10 -9z m-4570 -4 c0 -2 -12 -14 -26 -28 -25 -22 -26
-23 -15 -2 9 18 19 26 39 32 1 1 2 0 2 -2z m6660 -12 c0 -9 -7 -18 -16 -22
-18 -7 -39 11 -30 26 11 17 46 13 46 -4z m-5896 -20 c-4 -8 -8 -15 -10 -15 -2
0 -4 7 -4 15 0 8 4 15 10 15 5 0 7 -7 4 -15z m-831 -35 c-3 -11 -9 -20 -13
-20 -5 0 -6 9 -3 20 3 11 9 20 13 20 5 0 6 -9 3 -20z m3832 -19 c3 -5 1 -12
-5 -16 -5 -3 -10 1 -10 9 0 18 6 21 15 7z m2755 -25 c0 -3 -4 -8 -10 -11 -5
-3 -10 -1 -10 4 0 6 5 11 10 11 6 0 10 -2 10 -4z m140 -26 c0 -5 -4 -10 -10
-10 -5 0 -10 5 -10 10 0 6 5 10 10 10 6 0 10 -4 10 -10z m-6810 -34 c0 -3 -4
-8 -10 -11 -5 -3 -10 -1 -10 4 0 6 5 11 10 11 6 0 10 -2 10 -4z m3810 -11 c0
-8 -7 -15 -15 -15 -8 0 -15 7 -15 15 0 8 7 15 15 15 8 0 15 -7 15 -15z m-195
-23 c0 -18 -20 -15 -23 4 -3 10 1 15 10 12 7 -3 13 -10 13 -16z m268 -16 c3
-7 1 -18 -5 -24 -15 -15 -38 -3 -38 19 0 22 35 26 43 5z m327 -46 c0 -5 -4
-10 -10 -10 -5 0 -10 5 -10 10 0 6 5 10 10 10 6 0 10 -4 10 -10z m-132 -28 c3
-16 -2 -22 -16 -22 -24 0 -35 23 -19 39 16 16 31 8 35 -17z m367 3 c0 -13 -8
-21 -22 -23 -17 -3 -23 2 -23 16 0 10 3 22 7 26 13 13 38 1 38 -19z m-785 -20
c0 -8 -7 -15 -15 -15 -16 0 -20 12 -8 23 11 12 23 8 23 -8z m2870 0 c0 -8 -4
-15 -10 -15 -5 0 -10 7 -10 15 0 8 5 15 10 15 6 0 10 -7 10 -15z m218 4 c-2
-6 -8 -10 -13 -10 -5 0 -11 4 -13 10 -2 6 4 11 13 11 9 0 15 -5 13 -11z m-518
-14 c0 -8 -4 -15 -10 -15 -5 0 -10 7 -10 15 0 8 5 15 10 15 6 0 10 -7 10 -15z
m-76 -23 c2 -4 1 -14 -4 -21 -11 -19 -41 -6 -34 14 6 16 29 20 38 7z m-2409
-13 c10 -15 -1 -23 -20 -15 -9 3 -13 10 -10 16 8 13 22 13 30 -1z m225 -83 c0
-11 -19 -15 -25 -6 -3 5 1 10 9 10 9 0 16 -2 16 -4z m-1530 -26 c0 -5 -5 -10
-11 -10 -5 0 -7 5 -4 10 3 6 8 10 11 10 2 0 4 -4 4 -10z m3812 -5 c0 -5 -5
-11 -11 -13 -6 -2 -11 4 -11 13 0 9 5 15 11 13 6 -2 11 -8 11 -13z m143 -55
c0 -18 -6 -26 -23 -28 -24 -4 -38 18 -28 44 3 9 15 14 28 12 17 -2 23 -10 23
-28z m-6548 -20 c-14 -11 -29 -20 -33 -20 -4 0 3 9 16 20 13 11 27 20 33 20 5
0 -2 -9 -16 -20z m4410 -16 c-3 -3 -12 -4 -19 -1 -8 3 -5 6 6 6 11 1 17 -2 13
-5z m-4462 -24 c-3 -5 -11 -10 -16 -10 -6 0 -7 5 -4 10 3 6 11 10 16 10 6 0 7
-4 4 -10z m-64 -40 c-13 -11 -28 -20 -35 -19 -6 0 -1 5 12 11 12 6 22 15 22
20 0 4 6 8 13 8 6 -1 1 -10 -12 -20z m2809 0 c0 -5 -4 -10 -9 -10 -6 0 -13 5
-16 10 -3 6 1 10 9 10 9 0 16 -4 16 -10z m3565 -15 c0 -13 -8 -21 -22 -23 -19
-3 -23 1 -23 23 0 22 4 26 23 23 14 -2 22 -10 22 -23z m-3487 -12 c2 -8 -5
-13 -17 -13 -12 0 -21 6 -21 16 0 18 31 15 38 -3z m-2958 -23 c-14 -11 -29
-20 -35 -20 -5 0 1 9 15 20 14 11 30 20 35 20 6 0 -1 -9 -15 -20z m-75 -52
c-3 -7 -31 -35 -62 -63 -32 -27 -77 -67 -100 -89 -65 -58 -54 -28 12 34 27 26
149 130 152 130 1 0 0 -6 -2 -12z m1629 -19 c35 -28 36 -80 1 -114 -26 -27
-41 -30 -79 -15 -41 15 -60 53 -47 93 19 56 78 73 125 36z m1466 0 c0 -5 -7
-9 -15 -9 -15 0 -20 12 -9 23 8 8 24 -1 24 -14z m55 -119 c-3 -5 -10 -10 -16
-10 -5 0 -9 5 -9 10 0 6 7 10 16 10 8 0 12 -4 9 -10z m-3380 -117 c-3 -16 -10
-32 -15 -37 -5 -5 -4 7 2 27 13 43 23 50 13 10z m2769 -24 c83 -98 -40 -205
-126 -109 -30 33 -35 59 -16 93 17 34 39 46 80 47 28 0 42 -7 62 -31z m794
-26 c-5 -26 -38 -29 -38 -4 0 15 6 21 21 21 14 0 19 -5 17 -17z m1270 -11 c2
-7 -3 -12 -12 -12 -9 0 -16 7 -16 16 0 17 22 14 28 -4z m-4844 -118 c-9 -27
-21 -60 -26 -74 -6 -14 -9 -26 -8 -28 0 -2 -9 -11 -22 -22 -25 -20 -37 -19
-21 2 6 7 20 40 32 73 38 103 77 146 45 49z m1140 -14 c46 -21 126 -106 126
-135 0 -8 11 -22 25 -33 14 -11 25 -24 25 -29 0 -6 12 -23 26 -39 29 -30 76
-104 109 -167 19 -38 19 -40 1 -110 -45 -180 -64 -217 -113 -231 -13 -3 -32
-9 -44 -12 -16 -4 -20 -2 -17 13 3 16 -9 19 -137 25 -145 7 -245 22 -280 41
-11 6 -23 11 -26 12 -9 0 -164 161 -196 203 -14 17 -30 32 -37 32 -6 0 -27 22
-46 49 -26 37 -38 47 -48 39 -9 -8 -11 -7 -8 3 9 28 16 121 10 131 -4 5 -15
-3 -25 -19 -10 -15 -19 -23 -19 -16 0 7 11 29 25 49 14 20 25 31 25 25 0 -7 5
-9 10 -6 6 3 10 15 10 26 0 24 12 37 63 67 41 24 62 28 51 11 -4 -8 -1 -8 12
-1 11 5 26 12 34 16 8 3 2 4 -13 1 -19 -4 -26 -2 -22 5 3 5 14 10 24 10 9 0
22 5 29 12 9 9 12 9 12 0 0 -6 7 -9 15 -6 8 4 13 9 10 14 -2 4 8 5 23 3 19 -3
23 -2 14 5 -11 7 -10 11 4 16 9 4 22 2 27 -3 6 -6 18 -4 34 6 13 9 42 15 66
15 23 -1 48 2 55 7 18 11 111 -5 166 -29z m2573 -6 c-9 -9 -28 6 -21 18 4 6
10 6 17 -1 6 -6 8 -13 4 -17z m-3702 -64 c-3 -5 -11 -10 -16 -10 -6 0 -7 5 -4
10 3 6 11 10 16 10 6 0 7 -4 4 -10z m3745 -70 c0 -21 -15 -27 -25 -10 -7 12 2
30 16 30 5 0 9 -9 9 -20z m1330 -80 c0 -5 -4 -10 -10 -10 -5 0 -10 5 -10 10 0
6 5 10 10 10 6 0 10 -4 10 -10z m-1180 -125 c10 -13 9 -15 -9 -15 -12 0 -21 6
-21 15 0 8 4 15 9 15 5 0 14 -7 21 -15z m-60 -25 c0 -5 -4 -10 -10 -10 -5 0
-10 5 -10 10 0 6 5 10 10 10 6 0 10 -4 10 -10z m138 -12 c-6 -18 -28 -21 -28
-4 0 9 7 16 16 16 9 0 14 -5 12 -12z m-951 -163 c31 -9 79 -31 107 -49 66 -43
298 -273 356 -353 25 -34 62 -72 83 -85 58 -35 89 -68 84 -89 -3 -11 0 -19 6
-19 7 -1 1 -10 -12 -20 -14 -13 -18 -20 -10 -21 14 0 -64 -38 -91 -44 -8 -2
-42 -12 -74 -23 -33 -11 -66 -17 -74 -14 -11 4 -13 1 -7 -8 5 -9 4 -11 -4 -6
-6 4 -17 4 -24 -2 -7 -5 -41 -17 -77 -27 -74 -21 -286 -28 -298 -9 -4 6 -29
16 -57 24 -94 24 -167 67 -250 148 -188 181 -234 252 -214 329 6 21 17 43 26
50 8 6 12 16 9 21 -3 5 1 15 9 22 8 7 13 15 11 19 -3 4 -1 13 5 21 7 13 9 12
9 -2 0 -10 5 -18 10 -18 6 0 10 5 10 12 0 13 47 58 61 58 4 0 35 18 68 40 33
22 68 40 78 40 10 0 24 4 31 8 24 16 172 13 229 -3z m-323 -10 c-10 -8 -26
-14 -34 -15 -8 0 -4 6 10 14 34 19 48 20 24 1z m1386 -25 c0 -5 -4 -10 -10
-10 -5 0 -10 5 -10 10 0 6 5 10 10 10 6 0 10 -4 10 -10z m25 -50 c3 -5 1 -10
-4 -10 -6 0 -11 5 -11 10 0 6 2 10 4 10 3 0 8 -4 11 -10z m735 -54 c0 -2 -7
-7 -16 -10 -8 -3 -12 -2 -9 4 6 10 25 14 25 6z m-2350 -31 c-7 -9 -15 -13 -17
-11 -6 6 20 36 26 30 2 -2 -2 -10 -9 -19z m3085 -75 c3 -5 1 -10 -4 -10 -6 0
-11 5 -11 10 0 6 2 10 4 10 3 0 8 -4 11 -10z m-621 -35 c3 -9 0 -15 -9 -15 -9
0 -12 6 -9 15 4 8 7 15 9 15 2 0 5 -7 9 -15z m506 -15 c0 -5 -4 -10 -10 -10
-5 0 -10 5 -10 10 0 6 5 10 10 10 6 0 10 -4 10 -10z m-1240 -26 c0 -9 -7 -14
-17 -12 -25 5 -28 28 -4 28 12 0 21 -6 21 -16z m820 -53 c0 -4 -15 -17 -32
-30 l-33 -22 28 25 c16 15 25 31 21 38 -4 7 -3 8 4 4 7 -4 12 -11 12 -15z
m-40 -1 c0 -5 -5 -10 -11 -10 -5 0 -7 5 -4 10 3 6 8 10 11 10 2 0 4 -4 4 -10z
m-30 -64 c0 -2 -8 -10 -17 -17 -16 -13 -17 -12 -4 4 13 16 21 21 21 13z m-619
-39 c-1 -12 -15 -9 -19 4 -3 6 1 10 8 8 6 -3 11 -8 11 -12z m1253 -23 c7 -19
-10 -44 -29 -44 -7 0 -18 7 -25 15 -10 12 -10 18 0 30 16 20 46 19 54 -1z
m-224 -10 c0 -9 -7 -14 -17 -12 -25 5 -28 28 -4 28 12 0 21 -6 21 -16z m-849
-119 c-1 -15 -24 -12 -29 3 -3 9 2 13 12 10 10 -1 17 -7 17 -13z m784 -15 c-5
-8 -11 -8 -17 -2 -6 6 -7 16 -3 22 5 8 11 8 17 2 6 -6 7 -16 3 -22z m-864 -53
c-13 -13 -26 -3 -16 12 3 6 11 8 17 5 6 -4 6 -10 -1 -17z m-3977 -179 c14 -23
-3 -52 -32 -56 -16 -2 -23 3 -28 22 -3 14 -3 33 0 42 8 20 45 15 60 -8z
m-1911 -195 c-7 -2 -19 -2 -25 0 -7 3 -2 5 12 5 14 0 19 -2 13 -5z m262 -3
c-3 -5 -12 -10 -18 -10 -7 0 -6 4 3 10 19 12 23 12 15 0z m1545 -30 c0 -5 -7
-10 -15 -10 -8 0 -15 5 -15 10 0 6 7 10 15 10 8 0 15 -4 15 -10z m-1634 -15
c-11 -8 -24 -15 -30 -15 -5 0 -1 7 10 15 10 8 24 14 29 14 6 0 1 -6 -9 -14z
m-336 1 c0 -2 -7 -7 -16 -10 -8 -3 -12 -2 -9 4 6 10 25 14 25 6z m290 -30 c0
-2 -7 -7 -16 -10 -8 -3 -12 -2 -9 4 6 10 25 14 25 6z m6720 -11 c17 -21 4 -62
-22 -71 -42 -13 -58 43 -20 74 20 16 27 15 42 -3z m-6863 -1 c-3 -3 -12 -4
-19 -1 -8 3 -5 6 6 6 11 1 17 -2 13 -5z m103 1 c0 -2 -27 -23 -61 -45 -72 -48
-76 -37 -4 14 48 33 65 42 65 31z m-343 -41 c-3 -3 -12 -4 -19 -1 -8 3 -5 6 6
6 11 1 17 -2 13 -5z m7210 -56 c-3 -8 -6 -5 -6 6 -1 11 2 17 5 13 3 -3 4 -12
1 -19z m-7002 2 c-3 -5 -11 -10 -16 -10 -6 0 -7 5 -4 10 3 6 11 10 16 10 6 0
7 -4 4 -10z m120 -25 c-16 -14 -35 -25 -41 -25 -6 0 -17 -7 -24 -16 -8 -8 -23
-20 -34 -25 -12 -6 -5 3 14 20 19 17 41 31 48 31 6 0 12 4 12 8 0 5 10 14 23
20 34 16 35 13 2 -13z m-160 -5 c-3 -5 -11 -10 -16 -10 -6 0 -7 5 -4 10 3 6
11 10 16 10 6 0 7 -4 4 -10z m-75 -48 c0 -4 -15 -16 -32 -26 l-33 -17 30 25
c33 29 35 30 35 18z m1885 -31 c3 -5 1 -12 -5 -16 -5 -3 -10 1 -10 9 0 18 6
21 15 7z m-175 -41 c0 -42 -53 -57 -66 -18 -9 28 20 52 47 37 11 -5 19 -14 19
-19z m-1646 5 c-4 -8 -10 -12 -15 -9 -11 6 -2 24 11 24 5 0 7 -7 4 -15z m-144
2 c0 -2 -10 -12 -22 -23 l-23 -19 19 23 c18 21 26 27 26 19z m6900 -7 c0 -5
-4 -10 -9 -10 -6 0 -13 5 -16 10 -3 6 1 10 9 10 9 0 16 -4 16 -10z m-6790 -32
c0 -6 -3 -8 -7 -5 -3 4 -22 -3 -42 -14 l-36 -21 35 30 c34 29 50 33 50 10z
m-237 -53 c-3 -9 -8 -14 -10 -11 -3 3 -2 9 2 15 9 16 15 13 8 -4z m31 -7 c-35
-41 -44 -49 -44 -42 0 9 51 64 58 64 3 0 -3 -10 -14 -22z m91 -24 c-15 -14
-30 -22 -33 -19 -3 3 7 18 24 33 16 15 31 23 32 19 2 -4 -8 -19 -23 -33z
m6781 9 c-10 -10 -19 5 -10 18 6 11 8 11 12 0 2 -7 1 -15 -2 -18z m-4563 -8
c-3 -9 -8 -14 -10 -11 -3 3 -2 9 2 15 9 16 15 13 8 -4z m-2612 -28 l-23 -22
17 28 c10 15 20 25 23 22 3 -3 -5 -16 -17 -28z m337 -22 c-6 -14 -15 -25 -20
-25 -5 0 -1 11 8 25 9 14 18 25 20 25 2 0 -2 -11 -8 -25z m-104 -7 c-32 -38
-54 -59 -54 -51 0 8 61 73 69 73 2 0 -4 -10 -15 -22z m313 6 c-3 -3 -12 -4
-19 -1 -8 3 -5 6 6 6 11 1 17 -2 13 -5z m2400 -10 c-3 -3 -12 -4 -19 -1 -8 3
-5 6 6 6 11 1 17 -2 13 -5z m-2480 -10 c-3 -3 -12 -4 -19 -1 -8 3 -5 6 6 6 11
1 17 -2 13 -5z m80 -10 c-3 -3 -12 -4 -19 -1 -8 3 -5 6 6 6 11 1 17 -2 13 -5z
m-252 -23 c-3 -6 -11 -11 -17 -11 -6 0 -6 6 2 15 14 17 26 13 15 -4z m195 12
c-8 -3 -22 -11 -30 -17 -13 -10 -13 -9 -1 7 7 9 21 17 30 16 13 0 14 -1 1 -6z
m1927 -9 c7 -19 -20 -49 -36 -40 -12 8 -15 39 -4 49 12 12 33 7 40 -9z m-1780
-36 c-3 -8 -6 -5 -6 6 -1 11 2 17 5 13 3 -3 4 -12 1 -19z m-519 -8 c-7 -10
-14 -18 -15 -16 -6 6 9 36 18 36 5 0 4 -9 -3 -20z m252 10 c0 -5 -5 -10 -11
-10 -5 0 -7 5 -4 10 3 6 8 10 11 10 2 0 4 -4 4 -10z m-216 -12 c-18 -30 -98
-117 -103 -112 -3 3 -1 8 4 12 6 4 30 31 54 60 40 49 62 68 45 40z m96 3 c0
-5 -7 -12 -16 -15 -14 -5 -15 -4 -4 9 14 17 20 19 20 6z m1701 -24 c-1 -12
-15 -9 -19 4 -3 6 1 10 8 8 6 -3 11 -8 11 -12z m-1609 -29 c-8 -8 -9 -4 -5 13
4 13 8 18 11 10 2 -7 -1 -18 -6 -23z m6858 22 c0 -5 -4 -10 -10 -10 -5 0 -10
5 -10 10 0 6 5 10 10 10 6 0 10 -4 10 -10z m-6980 -10 c0 -5 -5 -10 -11 -10
-5 0 -7 5 -4 10 3 6 8 10 11 10 2 0 4 -4 4 -10z m6855 -10 c3 -5 -1 -10 -9
-10 -9 0 -16 5 -16 10 0 6 4 10 9 10 6 0 13 -4 16 -10z m-6755 -18 c0 -5 -8
-17 -19 -28 -10 -11 -26 -34 -35 -50 -15 -26 -16 -26 -10 -4 4 13 19 39 33 57
28 35 31 38 31 25z m-143 -31 c0 -25 -2 -27 -14 -15 -12 11 -12 16 -1 28 7 9
13 15 14 16 0 0 1 -13 1 -29z m424 -4 c-10 -9 -11 -8 -5 6 3 10 9 15 12 12 3
-3 0 -11 -7 -18z m6289 13 c0 -5 -4 -10 -10 -10 -5 0 -10 5 -10 10 0 6 5 10
10 10 6 0 10 -4 10 -10z m-120 -41 c0 -11 -4 -17 -10 -14 -5 3 -10 13 -10 21
0 8 5 14 10 14 6 0 10 -9 10 -21z m-6720 -4 c0 -1 -6 -8 -14 -15 -12 -9 -15
-8 -13 8 0 12 6 18 14 15 7 -3 13 -6 13 -8z m83 0 c-3 -9 -8 -14 -10 -11 -3 3
-2 9 2 15 9 16 15 13 8 -4z m-31 -37 c-7 -7 -12 -8 -12 -2 0 14 12 26 19 19 2
-3 -1 -11 -7 -17z m446 -8 c-22 -30 -35 -41 -22 -17 9 16 36 47 41 47 2 0 -6
-13 -19 -30z m-331 -2 c-3 -8 -6 -5 -6 6 -1 11 2 17 5 13 3 -3 4 -12 1 -19z
m7025 -10 c-15 -15 -26 -4 -18 18 5 13 9 15 18 6 9 -9 9 -15 0 -24z m-7242 2
c0 -5 -5 -10 -11 -10 -5 0 -7 5 -4 10 3 6 8 10 11 10 2 0 4 -4 4 -10z m232
-22 c-8 -8 -9 -4 -5 13 4 13 8 18 11 10 2 -7 -1 -18 -6 -23z m1698 22 c0 -5
-5 -10 -11 -10 -5 0 -7 5 -4 10 3 6 8 10 11 10 2 0 4 -4 4 -10z m-1765 -30 c3
-5 1 -10 -4 -10 -6 0 -11 5 -11 10 0 6 2 10 4 10 3 0 8 -4 11 -10z m-113 -22
c-7 -7 -12 -8 -12 -2 0 14 12 26 19 19 2 -3 -1 -11 -7 -17z m-100 -20 c-8 -8
-9 -4 -5 13 4 13 8 18 11 10 2 -7 -1 -18 -6 -23z m262 -7 c-4 -17 -9 -30 -11
-27 -3 2 -2 19 2 36 9 41 17 33 9 -9z m262 1 l-29 -27 23 32 c13 18 26 30 29
28 3 -3 -8 -18 -23 -33z m-329 22 c-3 -3 -12 -4 -19 -1 -8 3 -5 6 6 6 11 1 17
-2 13 -5z m43 -4 c0 -5 -4 -10 -10 -10 -5 0 -10 5 -10 10 0 6 5 10 10 10 6 0
10 -4 10 -10z m4185 0 c3 -5 -1 -10 -10 -10 -9 0 -13 5 -10 10 3 6 8 10 10 10
2 0 7 -4 10 -10z m-4345 -21 c0 -6 -4 -7 -10 -4 -5 3 -10 11 -10 16 0 6 5 7
10 4 6 -3 10 -11 10 -16z m-14 -21 c4 -7 3 -8 -4 -4 -6 4 -19 -5 -28 -19 -9
-14 -19 -24 -21 -21 -6 6 27 56 38 56 4 0 11 -5 15 -12z m-118 -45 c-14 -21
-42 -65 -64 -98 -42 -66 -63 -92 -45 -58 6 12 8 29 5 37 -5 12 -2 15 10 10 20
-8 20 0 0 34 -16 27 -16 27 3 6 l19 -21 17 23 c12 17 14 24 4 27 -8 4 -7 6 3
6 9 1 27 19 40 40 14 21 27 37 29 35 2 -2 -7 -21 -21 -41z m145 2 c-20 -25
-39 -45 -41 -45 -6 0 15 27 47 63 39 43 36 31 -6 -18z m391 16 c-10 -10 -21
-17 -23 -15 -6 6 20 34 32 34 6 0 2 -8 -9 -19z m4051 -31 c-5 -8 -11 -8 -17
-2 -6 6 -7 16 -3 22 5 8 11 8 17 2 6 -6 7 -16 3 -22z m-4025 16 c0 -3 -4 -8
-10 -11 -5 -3 -10 -1 -10 4 0 6 5 11 10 11 6 0 10 -2 10 -4z m-524 -34 c-17
-16 -18 -16 -5 5 7 12 15 20 18 17 3 -2 -3 -12 -13 -22z m-226 4 c0 -3 -4 -8
-10 -11 -5 -3 -10 -1 -10 4 0 6 5 11 10 11 6 0 10 -2 10 -4z m4950 -16 c0 -5
-7 -10 -15 -10 -8 0 -15 5 -15 10 0 6 7 10 15 10 8 0 15 -4 15 -10z m-4400
-21 c0 -4 -7 -6 -15 -3 -8 4 -15 10 -15 15 0 4 7 6 15 3 8 -4 15 -10 15 -15z
m80 11 c0 -5 -5 -10 -11 -10 -5 0 -7 5 -4 10 3 6 8 10 11 10 2 0 4 -4 4 -10z
m-436 -25 c-9 -14 -19 -23 -22 -20 -5 4 26 45 35 45 2 0 -4 -11 -13 -25z m88
0 c-2 -14 -6 -25 -8 -25 -2 0 -4 11 -4 25 0 14 4 25 9 25 4 0 6 -11 3 -25z
m3288 -19 c0 -5 -7 -1 -15 10 -8 10 -14 24 -14 29 0 6 6 1 14 -9 8 -11 15 -24
15 -30z m-3364 -4 c-18 -16 -18 -16 -6 6 6 13 14 21 18 18 3 -4 -2 -14 -12
-24z m371 2 c-3 -3 -12 -4 -19 -1 -8 3 -5 6 6 6 11 1 17 -2 13 -5z m-126 -22
c-11 -21 -41 -48 -41 -38 0 11 34 55 43 56 4 0 3 -8 -2 -18z m86 12 c-3 -3
-12 -4 -19 -1 -8 3 -5 6 6 6 11 1 17 -2 13 -5z m-290 -36 c-3 -7 -5 -2 -5 12
0 14 2 19 5 13 2 -7 2 -19 0 -25z m1903 12 c0 -13 -7 -20 -20 -20 -13 0 -20 7
-20 20 0 13 7 20 20 20 13 0 20 -7 20 -20z m-2019 -30 c-21 -30 -17 -42 8 -17
10 10 11 9 6 -5 -7 -18 -26 -24 -38 -12 -3 3 4 21 16 39 12 19 24 32 26 29 3
-2 -5 -18 -18 -34z m172 -15 c17 -12 18 -15 5 -15 -20 0 -39 30 -37 57 1 13 3
12 6 -4 2 -13 14 -30 26 -38z m3318 23 c11 -21 11 -22 -4 -9 -10 7 -17 17 -17
22 0 15 9 10 21 -13z m1019 6 c0 -8 -4 -12 -10 -9 -5 3 -10 10 -10 16 0 5 5 9
10 9 6 0 10 -7 10 -16z m2948 -9 c-3 -3 -9 2 -12 12 -6 14 -5 15 5 6 7 -7 10
-15 7 -18z m-7194 -23 c2 -4 -7 -9 -22 -10 -21 -1 -24 0 -12 8 18 12 27 12 34
2z m4656 -11 c0 -6 -4 -13 -10 -16 -5 -3 -10 1 -10 9 0 9 5 16 10 16 6 0 10
-4 10 -9z m-4990 -16 c-7 -9 -15 -13 -19 -10 -3 3 1 10 9 15 21 14 24 12 10
-5z m7568 -20 c-3 -3 -9 2 -12 12 -6 14 -5 15 5 6 7 -7 10 -15 7 -18z m-5820
-2 c-2 -10 -10 -18 -18 -18 -8 0 -16 8 -18 18 -2 12 3 17 18 17 15 0 20 -5 18
-17z m-1708 -3 c0 -5 -5 -10 -11 -10 -5 0 -7 5 -4 10 3 6 8 10 11 10 2 0 4 -4
4 -10z m2180 6 c0 -3 -4 -8 -10 -11 -5 -3 -10 -1 -10 4 0 6 5 11 10 11 6 0 10
-2 10 -4z m-350 -101 c17 -20 5 -45 -20 -45 -23 0 -35 22 -26 45 7 19 30 19
46 0z m3080 -9 c0 -35 -20 -43 -42 -16 -25 31 -23 40 12 40 25 0 30 -4 30 -24z
m2690 3 c0 -6 -4 -7 -10 -4 -5 3 -10 11 -10 16 0 6 5 7 10 4 6 -3 10 -11 10
-16z m33 -49 c10 -16 16 -30 14 -30 -2 0 -13 14 -25 30 -13 17 -19 30 -14 30
4 0 16 -13 25 -30z m57 -71 c0 -6 -4 -7 -10 -4 -5 3 -10 11 -10 16 0 6 5 7 10
4 6 -3 10 -11 10 -16z m-6202 -37 c3 -16 -2 -22 -17 -22 -26 0 -36 17 -20 36
16 19 33 13 37 -14z m6222 8 c0 -5 -2 -10 -4 -10 -3 0 -8 5 -11 10 -3 6 -1 10
4 10 6 0 11 -4 11 -10z m-2980 -31 c0 -24 -23 -21 -28 4 -2 10 3 17 12 17 10
0 16 -9 16 -21z m-2880 -23 c0 -3 -4 -8 -10 -11 -5 -3 -10 -1 -10 4 0 6 5 11
10 11 6 0 10 -2 10 -4z m5926 -23 c-7 -7 -26 7 -26 19 0 6 6 6 15 -2 9 -7 13
-15 11 -17z m-6168 6 c-2 -6 -8 -10 -13 -10 -5 0 -11 4 -13 10 -2 6 4 11 13
11 9 0 15 -5 13 -11z m-368 -39 c0 -5 -2 -10 -4 -10 -3 0 -8 5 -11 10 -3 6 -1
10 4 10 6 0 11 -4 11 -10z m555 0 c-3 -5 -11 -10 -16 -10 -6 0 -7 5 -4 10 3 6
11 10 16 10 6 0 7 -4 4 -10z m6255 -160 c0 -5 -2 -10 -4 -10 -3 0 -8 5 -11 10
-3 6 -1 10 4 10 6 0 11 -4 11 -10z m-6211 -41 c18 -11 40 -18 47 -15 9 3 25
-13 44 -47 16 -29 30 -48 30 -43 0 5 17 -14 38 -43 20 -28 44 -51 52 -51 18 0
39 -44 38 -82 0 -23 -3 -25 -22 -18 -64 25 -178 88 -229 126 -63 47 -76 51
-95 32 -20 -20 -14 -46 33 -128 25 -44 45 -82 45 -85 0 -3 11 -23 25 -45 14
-22 25 -44 25 -50 0 -6 11 -26 25 -44 14 -18 25 -38 25 -45 0 -6 9 -21 19 -33
22 -23 18 -48 -8 -48 -20 0 -33 10 -47 35 -12 22 -7 48 7 39 10 -6 12 7 3 30
-5 14 -9 14 -22 4 -13 -11 -15 -10 -10 9 7 26 -9 42 -18 19 -9 -23 -24 -20
-24 5 0 11 -4 18 -8 15 -4 -2 -27 13 -50 35 -24 21 -47 39 -53 39 -5 0 -12 7
-15 15 -4 8 -15 15 -25 15 -10 0 -19 6 -19 14 0 8 -17 24 -37 36 -21 13 -33
25 -26 27 8 3 10 21 6 56 -10 95 43 217 95 217 6 0 12 4 12 9 0 26 97 26 139
0z m3699 -64 c-3 -59 -3 -60 -33 -60 -29 0 -30 1 -33 54 -2 41 1 57 15 71 14
13 22 14 36 6 14 -9 17 -22 15 -71z m-1721 53 c-3 -8 -6 -5 -6 6 -1 11 2 17 5
13 3 -3 4 -12 1 -19z m1523 14 c0 -5 -11 -15 -25 -22 -14 -7 -25 -17 -25 -22
0 -4 -4 -8 -10 -8 -5 0 -10 9 -10 21 0 11 4 18 9 15 4 -3 17 1 27 9 22 16 34
19 34 7z m2833 -34 c26 -26 7 -21 -28 8 -21 17 -24 23 -10 18 11 -4 28 -15 38
-26z m-1909 -9 c-1 -13 -2 -31 -3 -39 0 -9 -16 -20 -33 -25 -44 -13 -51 -51
-15 -80 25 -19 25 -21 12 -70 -14 -56 -66 -205 -71 -205 -1 0 0 15 3 34 4 29
2 34 -18 39 -13 4 -34 7 -45 7 -31 0 -40 32 -15 49 46 30 13 101 -46 101 -18
0 -29 12 -48 54 -33 73 -32 84 5 78 17 -2 52 2 78 9 26 7 51 14 56 14 5 0 13
9 18 20 5 13 7 5 3 -25 -20 -190 -26 -261 -23 -272 6 -17 45 129 65 242 12 66
20 89 29 86 8 -3 16 -1 20 5 11 18 29 3 28 -22z m169 10 c20 -6 37 -14 37 -20
0 -6 -10 -8 -22 -4 -17 5 -19 4 -9 -3 11 -8 10 -11 -5 -15 -13 -3 -10 -5 11
-7 17 -2 -1 -6 -39 -11 -39 -4 -73 -6 -77 -3 -4 2 -2 22 3 44 11 44 5 42 101
19z m-843 0 c0 -5 4 -8 8 -5 4 2 14 1 21 -3 19 -12 4 -114 -16 -107 -8 4 -21
6 -29 6 -15 0 -18 36 -8 89 6 29 24 44 24 20z m-462 -24 c-3 -3 -9 2 -12 12
-6 14 -5 15 5 6 7 -7 10 -15 7 -18z m73 -12 l16 -33 -26 0 c-16 0 -21 3 -14 8
10 6 9 13 -1 33 -9 17 -10 26 -2 26 6 0 18 -15 27 -34z m149 -21 c-18 -37 -25
-61 -17 -62 252 -33 361 -50 379 -61 10 -5 27 -9 39 -9 21 0 137 -24 194 -40
17 -4 47 -11 69 -15 37 -6 38 -7 17 -21 -26 -19 -167 -233 -243 -369 -115
-206 -323 -637 -387 -800 -12 -33 -64 -215 -87 -310 -66 -265 -106 -597 -89
-730 6 -48 10 -58 32 -66 18 -7 30 -6 37 1 8 8 5 9 -9 4 -15 -5 -11 3 15 30
52 56 177 114 257 120 11 0 19 4 17 7 -13 22 180 25 230 4 50 -21 54 -7 23 92
-19 58 -77 368 -77 408 0 11 -57 4 -78 -11 -21 -15 -22 -14 -22 14 0 16 9 54
19 84 58 170 176 248 374 248 48 0 87 -3 87 -6 0 -3 -9 -17 -19 -30 -45 -57
-85 -259 -52 -259 9 0 25 29 41 75 37 104 39 107 70 176 15 34 31 77 35 95 4
17 22 55 39 83 18 28 35 58 38 67 4 9 39 65 80 125 40 60 77 117 83 126 73
123 159 258 165 258 5 0 16 23 25 50 9 28 20 50 25 50 4 0 11 11 14 25 4 14
11 23 16 20 6 -3 10 2 10 12 0 11 5 24 12 31 7 7 17 27 23 44 6 18 16 32 23
31 6 -2 9 4 6 12 -6 16 26 76 37 69 4 -2 5 4 2 14 -2 10 3 24 11 31 29 24 20
77 -20 120 -65 73 -209 129 -514 200 -48 12 200 12 300 1 96 -10 257 -36 340
-55 124 -27 314 -65 326 -65 5 0 -8 -17 -28 -37 -79 -83 -216 -318 -394 -675
-216 -432 -263 -565 -359 -1018 -24 -115 -48 -401 -40 -484 8 -88 18 -94 73
-48 76 65 245 135 329 136 23 0 37 4 30 8 -21 13 66 9 123 -6 83 -22 81 -29
37 139 -15 55 -33 150 -42 210 -8 61 -18 120 -20 132 -6 27 -33 30 -75 8 -36
-19 -37 -15 -14 70 35 138 116 219 265 264 40 12 202 15 197 3 -1 -4 -15 -32
-31 -63 -15 -30 -35 -93 -43 -139 -14 -73 -15 -100 -4 -190 24 -212 82 -423
188 -689 l49 -121 -61 58 c-169 161 -494 287 -646 249 -78 -19 -243 -96 -370
-173 -122 -75 -135 -85 -133 -109 2 -22 0 -25 -13 -14 -20 17 -45 4 -172 -87
-65 -47 -108 -72 -114 -66 -5 5 -12 83 -15 173 -3 90 -9 173 -13 184 -10 27
-135 71 -246 87 -71 10 -90 9 -146 -6 -129 -35 -364 -166 -613 -341 -191 -135
-170 -137 -184 13 -13 132 -6 303 20 480 9 65 9 86 0 95 -10 9 -20 3 -44 -28
-125 -157 -324 -348 -502 -481 -201 -151 -231 -160 -160 -50 19 30 35 59 35
65 0 5 6 16 13 23 14 14 60 107 71 146 4 12 12 22 17 22 5 0 9 10 9 23 0 12 7
32 15 43 8 12 12 24 8 27 -3 4 -1 12 4 19 15 20 50 132 77 248 25 104 40 211
51 344 3 38 7 71 8 73 2 2 15 -14 28 -34 13 -21 32 -39 42 -41 14 -3 17 4 17
45 0 58 -11 102 -53 211 l-31 82 -208 0 c-117 0 -209 -4 -213 -9 -3 -5 9 -37
26 -71 27 -54 88 -253 105 -345 l5 -30 -32 40 c-47 58 -241 245 -255 245 -14
0 -135 -124 -196 -200 -69 -86 -139 -186 -217 -305 -39 -60 -77 -118 -84 -129
-27 -41 -32 -43 -95 -32 -183 30 -527 -139 -857 -423 -38 -33 -74 -56 -78 -51
-5 4 1 29 13 56 12 26 23 53 24 59 1 5 4 15 8 20 3 6 9 25 13 43 4 19 11 30
18 25 7 -4 8 0 3 12 -4 11 -1 32 8 50 21 43 66 192 66 220 0 13 4 25 10 27 5
2 14 23 19 48 14 69 43 183 53 205 4 11 12 40 17 65 16 75 70 301 87 360 31
107 40 130 49 123 4 -5 5 -2 1 5 -10 17 69 188 110 238 l23 29 1 -30 c0 -16
-4 -68 -10 -115 -5 -47 -10 -144 -12 -216 -3 -140 -2 -145 51 -173 49 -27 160
19 316 129 118 82 154 103 171 96 8 -3 12 -2 9 3 -3 6 15 13 40 17 64 9 57 33
-15 57 -39 13 -108 21 -235 27 -99 4 -187 11 -195 14 -12 5 -15 32 -17 142 -3
199 -18 229 -91 184 -42 -26 -44 -25 -64 10 -23 40 -115 98 -235 148 -112 47
-277 102 -308 102 -11 0 -25 4 -30 8 -37 27 -292 422 -375 580 -13 27 -20 30
74 -32 33 -22 94 -55 135 -73 42 -19 104 -48 137 -63 34 -16 86 -34 115 -39
370 -65 726 -261 1046 -576 73 -72 133 -138 133 -148 0 -28 -59 -57 -117 -57
-78 0 -80 2 -75 69 6 82 -14 118 -70 126 -24 3 -74 5 -113 3 l-70 -3 3 -35 c4
-42 46 -123 105 -202 40 -55 44 -58 86 -58 94 0 285 -47 371 -90 89 -45 101
-42 129 33 29 77 65 143 153 278 37 58 68 111 68 117 0 6 -11 23 -24 39 -13
15 -30 42 -38 58 -17 34 -63 223 -56 230 2 3 41 -19 86 -49 57 -37 102 -58
151 -70 64 -16 74 -16 131 -1 34 9 71 13 83 10 17 -5 19 -4 7 4 -8 6 -12 11
-8 11 3 0 14 3 24 7 12 4 15 3 10 -5 -5 -8 -2 -10 9 -5 11 4 13 8 6 13 -7 4 5
19 29 39 36 29 70 71 106 132 6 11 14 16 18 12 4 -4 4 0 0 10 -3 10 -1 17 6
17 6 0 9 3 7 8 -3 4 17 5 45 3 78 -5 204 44 357 141 46 29 67 35 56 18 -3 -6
1 -7 10 -3 12 4 13 8 5 13 -16 10 76 74 96 66 10 -4 13 -2 8 6 -5 8 -2 9 10 5
9 -4 15 -3 11 2 -3 6 15 24 40 41 25 17 45 34 45 37 0 14 -38 32 -69 33 -69 0
-18 14 65 17 55 2 93 8 107 18 12 8 26 15 32 15 5 0 3 -5 -5 -11 -13 -9 -13
-10 0 -6 8 2 14 10 13 18 -2 12 67 72 74 65 2 -1 -6 -21 -17 -44z m384 -21
c-6 -46 -9 -51 -31 -51 -22 0 -24 3 -18 33 12 57 16 66 33 70 24 5 24 5 16
-52z m102 32 c13 -17 13 -17 14 2 l1 20 15 -20 c22 -28 65 -127 59 -133 -3 -3
-20 -1 -38 6 -17 6 -51 14 -74 18 -41 6 -43 8 -43 41 0 19 5 43 11 54 9 17 13
18 27 7 13 -11 15 -11 9 5 -3 9 -4 17 0 17 3 0 12 -8 19 -17z m1720 -126 c58
-73 111 -139 117 -147 42 -51 117 -175 117 -192 0 -11 -11 -52 -24 -91 -13
-40 -31 -106 -40 -147 -9 -41 -21 -93 -25 -115 -11 -48 2 -216 20 -265 25 -69
38 -82 78 -75 54 10 169 60 251 110 41 24 78 41 84 38 5 -3 6 -2 3 4 -3 5 10
25 29 43 44 41 43 50 -22 186 -97 206 -117 251 -150 336 -44 117 -65 188 -54
188 5 0 33 -11 62 -25 112 -52 208 -86 328 -117 l125 -33 273 0 c150 0 265 -2
255 -6 -10 -3 -49 -20 -86 -37 -131 -63 -241 -92 -344 -92 -51 0 -124 5 -163
12 -94 16 -102 6 -53 -60 21 -28 46 -61 55 -74 9 -13 53 -72 97 -133 44 -60
79 -114 78 -119 -3 -8 -148 -99 -272 -170 -149 -85 -290 -163 -357 -197 l-78
-39 0 -58 c1 -31 7 -124 15 -207 28 -305 51 -411 86 -402 10 3 20 0 23 -7 3
-6 5 -4 4 4 -2 8 4 29 12 47 l14 32 29 -32 c35 -39 77 -119 77 -147 0 -11 -31
-54 -72 -98 -158 -170 -358 -465 -358 -528 0 -53 -25 24 -70 221 -90 388 -104
484 -102 687 2 151 15 315 39 470 5 35 1 41 -68 115 -125 132 -173 189 -208
247 l-34 57 32 100 c22 68 30 109 26 129 -5 24 -4 29 9 24 17 -7 32 35 22 62
-4 9 0 27 8 39 8 12 19 44 25 71 5 27 15 69 21 94 7 25 13 54 15 65 2 11 11
63 20 115 10 56 15 128 13 176 -1 45 1 80 5 77 4 -3 55 -64 113 -136z m-2516
127 c0 -3 -7 -12 -15 -20 -13 -14 -15 -13 -15 5 0 12 6 21 15 21 8 0 15 -3 15
-6z m84 -9 c-4 -8 -10 -15 -15 -15 -5 0 -9 7 -9 15 0 8 7 15 15 15 9 0 12 -6
9 -15z m-1194 -10 c0 -8 -7 -15 -15 -15 -16 0 -20 12 -8 23 11 12 23 8 23 -8z
m4325 5 c3 -5 2 -10 -4 -10 -5 0 -13 5 -16 10 -3 6 -2 10 4 10 5 0 13 -4 16
-10z m-3271 -54 c-4 -16 2 -30 20 -47 14 -13 26 -27 26 -31 0 -10 -79 -62 -85
-57 -2 3 0 22 5 44 5 22 10 55 10 73 0 23 4 31 12 26 8 -5 9 -2 5 10 -4 10 -3
15 3 11 6 -3 8 -16 4 -29z m3306 24 c0 -5 -2 -10 -4 -10 -3 0 -8 5 -11 10 -3
6 -1 10 4 10 6 0 11 -4 11 -10z m-3392 -193 c-13 -10 -30 -23 -38 -30 -14 -12
-66 -37 -75 -37 -8 0 -35 71 -35 90 0 10 13 23 29 30 16 6 46 27 67 45 21 19
41 32 45 29 4 -2 11 4 15 14 6 11 10 -6 12 -53 3 -63 1 -72 -20 -88z m3498
139 c10 -8 16 -18 11 -22 -4 -4 -7 -2 -7 4 0 7 -6 12 -14 12 -8 0 -18 5 -21
10 -9 15 8 12 31 -4z m-4644 -58 c-12 -22 -12 -22 -7 5 3 15 1 27 -5 27 -5 0
-10 5 -10 12 0 8 6 6 17 -4 14 -14 14 -21 5 -40z m138 42 c0 -5 -2 -10 -4 -10
-3 0 -8 5 -11 10 -3 6 -1 10 4 10 6 0 11 -4 11 -10z m-2775 -10 c3 -5 1 -10
-4 -10 -6 0 -11 5 -11 10 0 6 2 10 4 10 3 0 8 -4 11 -10z m5250 -34 l40 -13
-58 -4 c-49 -3 -57 -2 -57 14 0 20 18 21 75 3z m2140 -6 c3 -5 2 -10 -4 -10
-5 0 -13 5 -16 10 -3 6 -2 10 4 10 5 0 13 -4 16 -10z m-6316 -40 c12 0 21 -4
21 -10 0 -5 -4 -10 -10 -10 -5 0 -10 -4 -10 -10 0 -5 13 -7 32 -3 23 4 29 3
24 -6 -6 -8 -26 -11 -64 -7 -32 2 -46 2 -32 -1 14 -2 33 -12 42 -20 12 -11 28
-13 51 -9 19 4 45 3 57 -2 17 -6 5 -8 -41 -8 -35 1 -73 7 -84 13 -11 6 -28 14
-37 17 -24 7 -12 36 16 37 20 2 20 2 -1 6 -13 2 -23 11 -23 19 0 11 4 12 19 4
11 -5 29 -10 40 -10z m-1414 0 c3 -5 1 -10 -4 -10 -6 0 -11 5 -11 10 0 6 2 10
4 10 3 0 8 -4 11 -10z m5534 -22 l24 -28 -26 0 c-24 0 -27 4 -27 32 0 17 1 29
3 27 1 -2 13 -16 26 -31z m2298 3 c6 -9 15 -12 19 -8 5 4 2 12 -6 17 -17 11
-9 13 14 4 9 -3 16 -12 16 -20 0 -21 16 -17 28 9 7 13 11 16 11 7 1 -21 161
-23 161 -2 0 8 7 11 18 8 50 -14 81 -16 87 -7 8 14 82 14 90 1 3 -5 26 -19 52
-30 49 -21 117 -85 128 -119 11 -36 -6 -161 -22 -161 -10 0 -12 -6 -8 -19 7
-24 -14 -39 -27 -20 -6 10 -7 7 -3 -10 5 -16 4 -21 -4 -17 -21 14 -11 -12 12
-27 12 -9 17 -16 11 -16 -5 -1 -25 10 -43 23 -32 24 -32 25 -11 36 36 19 7 40
-59 40 -32 1 -64 7 -74 15 -18 13 -15 15 32 39 40 21 51 31 51 51 0 40 -28 47
-157 39 -70 -4 -118 -3 -122 3 -3 5 -28 25 -56 43 -27 19 -59 43 -71 53 -12
10 -51 37 -86 58 -57 35 -60 39 -28 32 19 -3 40 -13 47 -22z m-2217 -37 c0 -2
-9 -4 -21 -4 -11 0 -18 4 -14 10 5 8 35 3 35 -6z m-1720 -103 c0 -10 -95 -41
-127 -41 -13 0 -34 7 -47 15 -29 20 -73 3 -79 -29 -2 -11 -5 -4 -6 17 0 22 -5
36 -11 32 -6 -3 -7 1 -4 9 3 9 10 13 15 10 5 -3 9 0 9 6 0 6 5 8 10 5 6 -3 10
-2 10 3 0 5 14 15 30 22 17 7 30 16 30 20 0 4 16 11 35 14 19 4 35 12 35 19 1
13 100 -89 100 -102z m75 79 c18 -34 18 -40 5 -40 -5 0 -10 9 -10 19 0 11 -4
23 -10 26 -5 3 -10 -2 -10 -12 0 -14 -2 -15 -9 -4 -6 9 -5 19 2 27 16 17 14
18 32 -16z m-2365 0 c-13 -8 -12 -10 4 -10 11 0 17 -3 13 -6 -3 -3 -15 -3 -28
1 -17 6 -19 9 -8 16 8 5 19 9 24 9 6 0 3 -5 -5 -10z m1302 -72 c-11 -23 -40
-90 -65 -148 -63 -144 -71 -160 -79 -160 -10 0 10 63 23 70 6 4 13 27 15 51 2
24 10 47 18 51 8 4 17 20 21 35 3 15 15 39 25 53 10 14 27 46 36 70 10 24 19
39 21 33 2 -6 -5 -31 -15 -55z m-1320 40 c31 -9 44 -9 59 0 25 16 27 16 27
-11 l0 -23 -70 17 c-67 17 -96 29 -68 29 7 0 30 -5 52 -12z m138 -3 c6 -8 9
-19 6 -24 -10 -15 -56 8 -49 25 7 18 27 18 43 -1z m-1450 -6 c0 -12 -29 -38
-42 -39 -10 0 -10 34 -1 43 11 11 43 8 43 -4z m1540 -25 c0 -8 -5 -14 -11 -14
-5 0 -7 -4 -4 -10 8 -13 -25 -13 -45 0 -13 8 -13 10 1 10 9 0 19 9 22 20 6 23
37 17 37 -6z m90 -14 c8 -5 11 -10 5 -10 -5 0 -17 5 -25 10 -8 5 -10 10 -5 10
6 0 17 -5 25 -10z m-4 -26 c17 -14 17 -15 1 -10 -10 3 -25 6 -33 6 -8 0 -14 5
-14 10 0 15 24 12 46 -6z m-61 -4 c3 -5 1 -10 -4 -10 -6 0 -11 5 -11 10 0 6 2
10 4 10 3 0 8 -4 11 -10z m1782 -32 c-3 -7 -5 -2 -5 12 0 14 2 19 5 13 2 -7 2
-19 0 -25z m-3507 -3 c0 -8 -4 -15 -9 -15 -13 0 -22 16 -14 24 11 11 23 6 23
-9z m1800 3 c0 -6 3 -9 6 -5 6 6 64 -19 64 -27 0 -5 -62 18 -85 31 -18 11 -18
12 -2 13 9 0 17 -5 17 -12z m4621 -41 c17 -44 18 -52 4 -118 -23 -109 -26
-110 -74 -28 -38 67 -41 75 -28 98 30 60 60 102 70 98 5 -1 18 -24 28 -50z
m-4441 -2 c0 -8 -4 -15 -10 -15 -5 0 -10 -4 -10 -10 0 -5 10 -10 23 -10 31 0
54 -15 34 -23 -17 -6 -57 2 -57 12 0 3 -14 12 -31 20 -16 7 -28 16 -25 19 3 2
12 -1 20 -7 12 -10 17 -9 28 8 15 25 28 27 28 6z m3210 -16 c0 -6 -4 -7 -10
-4 -5 3 -10 -1 -10 -9 0 -9 -3 -16 -8 -16 -4 0 -13 -9 -20 -21 -12 -19 -12
-20 10 -14 15 5 20 4 13 -3 -5 -5 -23 -13 -40 -16 -28 -7 -29 -7 -12 12 9 10
17 22 17 26 0 4 10 20 22 36 20 27 38 32 38 9z m-5532 -1 c19 -19 14 -30 -10
-26 -13 2 -24 11 -26 21 -4 20 18 23 36 5z m2412 -34 c0 -2 -7 -4 -15 -4 -8 0
-15 4 -15 10 0 5 7 7 15 4 8 -4 15 -8 15 -10z m1210 -8 c0 -8 -5 -18 -11 -22
-14 -8 -33 11 -25 25 10 16 36 13 36 -3z m-1157 -10 c3 -8 19 -17 36 -21 17
-4 35 -14 40 -22 6 -12 19 -15 57 -10 60 6 142 -12 149 -34 3 -9 28 -28 56
-44 37 -20 55 -37 66 -64 8 -20 16 -37 18 -39 7 -8 48 26 67 56 11 18 22 31
25 28 5 -5 -13 -50 -52 -131 -14 -27 -26 -64 -28 -81 -2 -17 -7 -35 -10 -41
-3 -5 -2 -15 3 -22 6 -10 10 -8 15 9 9 29 43 62 50 50 6 -10 -39 -120 -49
-120 -3 0 -14 19 -24 41 -11 23 -21 37 -23 31 -2 -6 -47 30 -99 81 -103 99
-131 124 -256 220 -97 73 -115 96 -76 90 23 -4 24 -3 10 7 -10 6 -18 15 -18
20 0 15 37 12 43 -4z m-1016 -38 c8 -9 12 -22 8 -27 -3 -6 1 -11 9 -11 10 0
16 -9 16 -22 -1 -21 -2 -22 -14 -5 -12 15 -15 15 -26 2 -10 -13 -9 -15 9 -15
12 0 21 -6 21 -15 0 -8 4 -15 10 -15 5 0 7 7 4 15 -4 8 -1 15 5 15 6 0 11 -12
12 -27 0 -16 3 -23 5 -16 4 8 10 6 22 -6 23 -24 44 -61 34 -61 -4 0 -16 14
-26 31 -14 24 -21 28 -27 18 -6 -10 -9 -11 -9 -1 0 6 -7 12 -15 12 -8 0 -26
12 -40 26 -24 24 -25 27 -11 54 12 25 12 32 0 47 -7 10 -13 25 -13 33 1 13 1
13 6 0 3 -8 12 -23 20 -32z m953 32 c-19 -13 -30 -13 -30 0 0 6 10 10 23 10
18 0 19 -2 7 -10z m-977 -71 c-4 -15 -9 -17 -17 -9 -8 8 -7 13 4 20 8 5 16 10
17 10 0 0 -1 -9 -4 -21z m4087 -33 c0 -3 -4 -8 -10 -11 -5 -3 -10 -1 -10 4 0
6 5 11 10 11 6 0 10 -2 10 -4z m3155 -6 c3 -5 1 -10 -4 -10 -6 0 -11 5 -11 10
0 6 2 10 4 10 3 0 8 -4 11 -10z m-8407 -1056 l-3 -338 -61 89 c-142 211 -174
307 -181 551 -5 164 -4 176 21 265 29 103 112 275 178 372 l43 62 3 -332 c1
-182 1 -484 0 -669z m-198 956 c0 -13 -7 -20 -20 -20 -13 0 -20 7 -20 20 0 13
7 20 20 20 13 0 20 -7 20 -20z m1470 0 c0 -5 -7 -10 -15 -10 -8 0 -15 5 -15
10 0 6 7 10 15 10 8 0 15 -4 15 -10z m74 -42 c12 -16 13 -24 4 -29 -7 -4 -16
-5 -21 -2 -5 3 -3 9 4 14 14 8 12 10 -13 13 -17 2 -22 26 -4 26 8 0 22 -10 30
-22z m7307 -75 c13 -16 12 -17 -3 -4 -10 7 -18 15 -18 17 0 8 8 3 21 -13z
m-8971 -158 c0 -8 -9 -15 -20 -15 -11 0 -20 7 -20 15 0 8 9 15 20 15 11 0 20
-7 20 -15z m2180 -25 c0 -5 -4 -10 -9 -10 -6 0 -13 5 -16 10 -3 6 1 10 9 10 9
0 16 -4 16 -10z m7025 0 c3 -5 2 -10 -4 -10 -5 0 -13 5 -16 10 -3 6 -2 10 4
10 5 0 13 -4 16 -10z m-6956 -27 c17 -10 31 -22 31 -27 0 -4 -13 -25 -29 -45
-60 -76 -150 -293 -174 -421 -14 -77 -40 -191 -51 -230 -8 -25 -18 -63 -24
-85 -56 -206 -74 -258 -84 -242 -6 9 -10 9 -18 -3 -5 -8 -10 -12 -10 -7 0 4
-10 1 -22 -7 -13 -8 -36 -16 -53 -18 l-30 -3 1 80 c1 52 5 79 12 78 9 -2 27
45 48 130 3 16 13 31 20 34 8 3 14 15 14 28 0 12 11 33 24 47 16 16 22 29 16
37 -5 9 1 31 16 59 13 25 24 52 24 61 0 9 7 25 15 35 8 10 24 48 35 82 12 35
26 64 31 64 5 0 9 7 9 15 0 23 62 149 81 165 3 3 9 27 13 55 8 64 18 73 45 38
l23 -28 -7 30 c-5 21 -4 26 3 16 5 -7 15 -10 21 -7 14 9 14 36 0 36 -6 0 -9 6
-6 13 2 6 -3 17 -12 24 -24 19 3 15 38 -4z m4172 -141 c-11 -90 -49 -251 -61
-265 -4 -5 -17 18 -28 50 -11 32 -26 72 -33 88 -10 27 -8 37 26 105 21 41 49
95 63 119 l26 44 9 -27 c6 -18 5 -59 -2 -114z m-3706 107 c-9 -28 19 -67 58
-78 29 -8 26 -9 -29 -10 -61 -1 -61 -1 -92 43 -18 24 -32 48 -32 53 0 5 23 10
50 10 46 2 50 0 45 -18z m-344 -152 c-13 -13 -15 21 -3 50 6 15 8 13 10 -11 2
-16 -1 -33 -7 -39z m-2441 38 c0 -8 -4 -15 -10 -15 -5 0 -10 7 -10 15 0 8 5
15 10 15 6 0 10 -7 10 -15z m8794 -11 c35 -13 7 -69 -31 -62 -22 4 -29 34 -13
53 14 17 21 18 44 9z m-8745 -41 c1 -1 0 -7 -4 -13 -9 -14 -35 6 -35 27 0 13
3 13 18 2 9 -7 19 -14 21 -16z m2483 -103 c17 0 19 -5 14 -37 -8 -49 0 -59 52
-66 54 -7 60 -12 38 -36 -17 -18 -17 -19 1 -24 14 -4 13 -5 -5 -6 -13 0 -20
-5 -17 -11 3 -5 -1 -10 -9 -10 -9 0 -16 -4 -16 -9 0 -7 -101 -61 -115 -61 -7
0 -6 90 2 188 5 66 9 82 20 77 8 -3 24 -5 35 -5z m5933 -70 c3 -5 -1 -10 -10
-10 -9 0 -13 5 -10 10 3 6 8 10 10 10 2 0 7 -4 10 -10z m70 -45 c0 -13 -8 -21
-22 -23 -17 -3 -23 2 -23 16 0 10 3 22 7 26 13 13 38 1 38 -19z m-5809 -14
c-3 -5 -17 -11 -31 -13 -20 -4 -23 -3 -14 8 12 15 54 20 45 5z m814 -301 c0
-5 -4 -10 -10 -10 -5 0 -10 5 -10 10 0 6 5 10 10 10 6 0 10 -4 10 -10z m1760
-74 c0 -18 -17 -29 -30 -21 -8 5 -7 11 1 21 15 18 29 18 29 0z m2390 -71 c0
-8 -4 -15 -9 -15 -13 0 -22 16 -14 24 11 11 23 6 23 -9z m-4420 -100 c6 -8 9
-19 5 -24 -8 -13 -45 9 -45 26 0 18 25 16 40 -2z m1743 -107 c37 -90 52 -147
41 -158 -13 -13 -127 -70 -139 -70 -10 0 -6 91 9 213 4 39 30 77 51 77 7 0 24
-28 38 -62z m-1673 16 c0 -2 -7 -4 -15 -4 -8 0 -15 4 -15 10 0 5 7 7 15 4 8
-4 15 -8 15 -10z m-1350 -15 c0 -6 -7 -9 -15 -6 -8 4 -17 2 -20 -3 -4 -6 3
-10 14 -10 23 0 25 -8 12 -42 -5 -13 -28 -81 -51 -153 -23 -72 -45 -139 -50
-150 -5 -11 -19 -51 -32 -88 -20 -59 -29 -72 -68 -97 -61 -39 -190 -103 -196
-97 -3 3 10 10 28 17 18 7 29 14 23 16 -15 6 -6 107 11 121 9 6 15 14 15 17
-4 34 3 59 24 84 14 17 25 41 25 54 0 13 6 33 14 44 8 10 13 28 10 39 -3 12 3
29 16 43 11 12 16 22 9 22 -8 0 -8 4 1 16 12 13 10 14 -16 3 -120 -48 -95 -42
-274 -68 -234 -34 -268 -37 -405 -36 -138 0 -237 17 -320 55 -24 11 -50 20
-58 20 -8 0 -20 7 -27 15 -14 17 -7 19 18 5 32 -18 177 -57 258 -70 65 -11
109 -11 225 -1 160 14 334 35 406 51 114 25 362 140 331 154 -7 3 -3 3 10 0
18 -4 24 0 33 25 11 30 49 45 49 20z m-1353 -165 c-6 -6 -47 9 -47 17 0 5 11
3 25 -3 14 -6 24 -13 22 -14z m2733 -40 c0 -9 -5 -14 -12 -12 -18 6 -21 28 -4
28 9 0 16 -7 16 -16z m5010 -54 c0 -5 -4 -10 -10 -10 -5 0 -10 5 -10 10 0 6 5
10 10 10 6 0 10 -4 10 -10z m-5730 -24 c0 -11 -19 -15 -25 -6 -3 5 1 10 9 10
9 0 16 -2 16 -4z m2430 -40 c0 -16 -59 -56 -84 -56 -9 0 -16 5 -16 10 0 6 -1
13 -2 16 -4 9 63 44 84 44 10 0 18 -6 18 -14z m-2126 -84 c-6 -9 -20 -17 -30
-17 -25 0 -31 35 -8 52 25 18 54 -8 38 -35z m5246 39 c0 -6 -4 -13 -10 -16 -5
-3 -10 1 -10 9 0 9 5 16 10 16 6 0 10 -4 10 -9z m-5572 -118 c4 -30 -31 -49
-52 -27 -18 18 -18 17 -10 39 10 25 58 16 62 -12z m4515 -40 c-3 -7 -1 -13 3
-13 9 0 34 -69 34 -92 0 -7 -6 -4 -12 6 -18 32 -48 119 -48 141 1 18 2 18 14
-4 8 -14 12 -31 9 -38z m44 -21 c20 -73 26 -108 19 -101 -3 3 -13 30 -21 60
-8 30 -18 65 -21 79 -4 14 -3 21 2 17 4 -4 14 -29 21 -55z m-292 28 c3 -5 2
-10 -4 -10 -5 0 -13 5 -16 10 -3 6 -2 10 4 10 5 0 13 -4 16 -10z m68 -35 c41
-19 66 -60 48 -78 -13 -13 -54 21 -47 39 5 14 -24 44 -42 44 -7 0 -12 5 -12
11 0 5 3 8 8 6 4 -2 24 -12 45 -22z m1062 7 c0 -18 -20 -15 -23 4 -3 10 1 15
10 12 7 -3 13 -10 13 -16z m-6239 -47 c-9 -13 -16 -38 -16 -55 0 -27 -6 -33
-46 -50 -47 -21 -64 -19 -64 6 0 8 -6 14 -14 14 -8 0 -18 4 -21 10 -4 6 1 7
11 3 12 -4 15 -3 10 5 -4 7 22 26 71 51 43 22 80 40 82 41 2 0 -4 -11 -13 -25z
m361 -39 c-4 -9 -11 -16 -17 -16 -17 0 -24 31 -9 41 18 11 34 -5 26 -25z
m-230 -1 c-7 -13 -14 -20 -15 -14 -2 5 2 16 8 24 18 21 20 18 7 -10z m5868 5
c3 -5 1 -10 -4 -10 -6 0 -11 5 -11 10 0 6 2 10 4 10 3 0 8 -4 11 -10z m-5273
-32 c-15 -15 -26 -4 -18 18 5 13 9 15 18 6 9 -9 9 -15 0 -24z m-612 -22 c0 -3
-4 -8 -10 -11 -5 -3 -10 -1 -10 4 0 6 5 11 10 11 6 0 10 -2 10 -4z m5712 -11
c0 -5 -5 -11 -11 -13 -6 -2 -11 4 -11 13 0 9 5 15 11 13 6 -2 11 -8 11 -13z"/>
<path d="M3000 6178 c-12 -22 -12 -22 6 -6 10 10 15 20 12 24 -4 3 -12 -5 -18
-18z"/>
<path d="M2230 2700 c6 -11 16 -20 23 -19 9 0 9 2 0 6 -7 2 -13 11 -13 19 0 8
-5 14 -10 14 -7 0 -7 -6 0 -20z"/>
<path d="M2080 2401 c0 -12 29 -35 36 -28 11 10 -5 37 -21 37 -8 0 -15 -4 -15
-9z"/>
<path d="M5509 2873 c-13 -16 -12 -17 4 -4 16 13 21 21 13 21 -2 0 -10 -8 -17
-17z"/>
<path d="M5401 2698 c-29 -35 -72 -83 -95 -108 -124 -135 -280 -300 -395 -420
-72 -74 -131 -138 -131 -143 0 -33 154 -282 267 -429 l43 -57 7 -140 c3 -78 9
-141 13 -141 7 0 80 162 80 178 0 5 7 15 15 22 8 7 15 21 15 31 0 11 5 19 12
19 6 0 9 3 5 6 -10 10 36 92 145 257 86 131 189 292 227 357 5 8 24 45 41 83
18 37 35 67 39 67 3 0 12 15 19 33 8 17 18 43 23 56 9 20 12 22 20 10 7 -10 8
-5 3 15 -4 17 -3 27 3 23 5 -3 22 23 37 58 27 62 27 65 11 98 -20 43 -47 67
-110 100 -83 43 -200 87 -230 87 -7 0 -36 -28 -64 -62z m199 -232 c33 -68 60
-129 60 -136 0 -7 -14 -38 -32 -70 -37 -68 -42 -70 -211 -70 l-108 0 7 73 c8
80 9 84 82 161 28 31 70 80 93 111 23 30 43 55 45 55 2 0 31 -56 64 -124z
m118 73 c24 -11 42 -23 40 -27 -27 -55 -53 -102 -58 -102 -3 0 -11 15 -19 33
-8 17 -22 51 -32 74 -11 23 -19 45 -19 48 0 8 35 -2 88 -26z m-428 -282 c0
-36 -4 -46 -24 -57 -21 -11 -27 -10 -42 4 -16 16 -15 20 22 57 21 21 39 39 41
39 2 0 3 -19 3 -43z m210 -147 c0 -5 -4 -10 -10 -10 -5 0 -10 5 -10 10 0 6 5
10 10 10 6 0 10 -4 10 -10z m-280 -45 c0 -8 -7 -15 -15 -15 -8 0 -15 7 -15 15
0 8 7 15 15 15 8 0 15 -7 15 -15z"/>
<path d="M5348 2203 c6 -2 18 -2 25 0 6 3 1 5 -13 5 -14 0 -19 -2 -12 -5z"/>
<path d="M5285 2719 c-11 -17 1 -21 15 -4 8 9 8 15 2 15 -6 0 -14 -5 -17 -11z"/>
<path d="M5189 2653 c-13 -16 -12 -17 4 -4 16 13 21 21 13 21 -2 0 -10 -8 -17
-17z"/>
<path d="M5079 2583 c-13 -16 -12 -17 4 -4 16 13 21 21 13 21 -2 0 -10 -8 -17
-17z"/>
<path d="M4994 2534 c-18 -14 -18 -15 4 -4 12 6 22 13 22 15 0 8 -5 6 -26 -11z"/>
<path d="M4382 1976 c-128 -132 -217 -280 -224 -371 l-3 -40 199 -3 c186 -2
198 -1 193 15 -4 10 -18 52 -33 93 -31 85 -45 267 -26 317 6 16 12 39 14 53 6
49 -28 31 -120 -64z"/>
<path d="M5675 520 c-3 -6 1 -7 9 -4 18 7 21 14 7 14 -6 0 -13 -4 -16 -10z"/>
<path d="M5625 500 c-3 -6 1 -7 9 -4 18 7 21 14 7 14 -6 0 -13 -4 -16 -10z"/>
<path d="M6795 490 c-3 -6 1 -7 9 -4 18 7 21 14 7 14 -6 0 -13 -4 -16 -10z"/>
<path d="M5570 470 c-19 -11 -31 -19 -27 -20 11 0 67 29 67 35 0 7 -1 7 -40
-15z"/>
<path d="M6675 410 c-3 -6 1 -7 9 -4 18 7 21 14 7 14 -6 0 -13 -4 -16 -10z"/>
<path d="M2770 1479 c0 -5 5 -7 10 -4 6 3 10 8 10 11 0 2 -4 4 -10 4 -5 0 -10
-5 -10 -11z"/>
<path d="M2430 579 c0 -5 5 -7 10 -4 6 3 10 8 10 11 0 2 -4 4 -10 4 -5 0 -10
-5 -10 -11z"/>
</g>
</svg>
